<svg xmlns="http://www.w3.org/2000/svg" viewBox="0 0 174 153"><title>Ресурс 1</title><g id="Слой_2" data-name="Слой 2"><g id="Слой_1-2" data-name="Слой 1"><rect x="0.5" y="0.5" width="173" height="152" rx="11.5" ry="11.5" style="fill:#3490dc"/><path d="M162,1a11,11,0,0,1,11,11V141a11,11,0,0,1-11,11H12A11,11,0,0,1,1,141V12A11,11,0,0,1,12,1H162m0-1H12A12,12,0,0,0,0,12V141a12,12,0,0,0,12,12H162a12,12,0,0,0,12-12V12A12,12,0,0,0,162,0Z" style="fill:#3490dc"/><line x1="21" y1="58" x2="153" y2="58" style="fill:none;stroke:#fff;stroke-miterlimit:10;stroke-width:2px"/><line x1="87" y1="113" x2="87" y2="58" style="fill:none;stroke:#fff;stroke-miterlimit:10;stroke-width:2px"/><path d="M23.87,90.47l1-.15,1.06-.11,1-.06.92,0a10.42,10.42,0,0,1,1.93.18,5.38,5.38,0,0,1,1.7.62,3.39,3.39,0,0,1,1.2,1.21,3.8,3.8,0,0,1,.45,1.93,4.6,4.6,0,0,1-.8,2.8,4.16,4.16,0,0,1-2.14,1.5l1,.62,3.2,5.34H31.23l-3.18-5.48-1.44-.26v5.74H23.87Zm4.2,2.1-.83,0a3.5,3.5,0,0,0-.63.08v4.06h1.16a2.91,2.91,0,0,0,1.82-.52,2,2,0,0,0,.68-1.72,1.82,1.82,0,0,0-.56-1.41A2.37,2.37,0,0,0,28.07,92.57Z" style="fill:#fff"/><path d="M48,97.07l.3-2.78h-.12l-.86,2.24-3,5.22h-.88l-3.14-5.24-.88-2.22h-.1l.4,2.76v7.28h-2.6v-14h2.5l3.74,6.4.66,1.6h.08l.6-1.64,3.54-6.36h2.48v14H48Z" style="fill:#fff"/><path d="M63.17,104.33H54.31v-14h2.74v11.56h6.12Z" style="fill:#fff"/><path d="M63.49,97.33A8.32,8.32,0,0,1,65,91.94a5.34,5.34,0,0,1,4.4-1.89,6.28,6.28,0,0,1,2.62.52,5.07,5.07,0,0,1,1.86,1.48,6.55,6.55,0,0,1,1.1,2.3,11.54,11.54,0,0,1,.36,3,8.3,8.3,0,0,1-1.55,5.39,5.37,5.37,0,0,1-4.39,1.89,6.13,6.13,0,0,1-2.64-.52,4.72,4.72,0,0,1-1.85-1.48,6.46,6.46,0,0,1-1.09-2.3A11.43,11.43,0,0,1,63.49,97.33Zm2.88,0a9.8,9.8,0,0,0,.18,2,4.83,4.83,0,0,0,.55,1.53,2.69,2.69,0,0,0,1,1,2.53,2.53,0,0,0,1.38.36A2.61,2.61,0,0,0,71.69,101a6.61,6.61,0,0,0,.8-3.7,10.33,10.33,0,0,0-.17-1.9,5.58,5.58,0,0,0-.53-1.54,2.84,2.84,0,0,0-.94-1,2.65,2.65,0,0,0-1.42-.37,2.57,2.57,0,0,0-2.26,1.17A6.57,6.57,0,0,0,66.37,97.33Z" style="fill:#fff"/><path d="M68.57,23.94c.23,0,.47-.08.74-.11s.53-.07.79-.09l.78,0,.69,0a7.64,7.64,0,0,1,1.44.14,4,4,0,0,1,1.28.46,2.61,2.61,0,0,1,.9.91,2.91,2.91,0,0,1,.34,1.45,3.44,3.44,0,0,1-.6,2.1,3.1,3.1,0,0,1-1.61,1.12l.74.47,2.4,4H74.09L71.7,30.22,70.62,30v4.3H68.57Zm3.15,1.57-.63,0a2.36,2.36,0,0,0-.47.06v3h.87a2.21,2.21,0,0,0,1.37-.39A1.52,1.52,0,0,0,73.37,27,1.33,1.33,0,0,0,73,25.9,1.75,1.75,0,0,0,71.72,25.51Z" style="fill:#fff"/><path d="M78.33,24.72a1,1,0,0,1,.32-.74,1.25,1.25,0,0,1,.9-.31,1.33,1.33,0,0,1,.92.31,1,1,0,0,1,.35.74.93.93,0,0,1-.35.73,1.43,1.43,0,0,1-.92.29,1.33,1.33,0,0,1-.9-.29A1,1,0,0,1,78.33,24.72Zm.29,2.11h1.95v7.5H78.62Z" style="fill:#fff"/><path d="M89.73,34.33a3,3,0,0,1-.88,2.41,3.63,3.63,0,0,1-2.48.77,7.54,7.54,0,0,1-1.7-.15,4.26,4.26,0,0,1-.94-.31l.41-1.55c.23.09.49.18.8.27a4,4,0,0,0,1.13.14,1.78,1.78,0,0,0,1.39-.44,1.93,1.93,0,0,0,.37-1.24v-.48h-.06a2.18,2.18,0,0,1-1.86.7,2.59,2.59,0,0,1-2.17-.9A4.5,4.5,0,0,1,83,30.73a4.31,4.31,0,0,1,1-3,3.62,3.62,0,0,1,2.79-1,9.69,9.69,0,0,1,1.71.14,7.18,7.18,0,0,1,1.24.31Zm-3.3-1.44a1.36,1.36,0,0,0,.88-.25,1.66,1.66,0,0,0,.47-.77V28.5a3,3,0,0,0-1.15-.2,1.37,1.37,0,0,0-1.17.57A3,3,0,0,0,85,30.66a3.12,3.12,0,0,0,.36,1.66A1.15,1.15,0,0,0,86.43,32.89Z" style="fill:#fff"/><path d="M96.92,34.33V30.07a2.57,2.57,0,0,0-.26-1.32,1,1,0,0,0-.93-.4,1.39,1.39,0,0,0-.91.34,1.59,1.59,0,0,0-.54.86v4.78h-2V23.83h2v3.84h.06a2.68,2.68,0,0,1,.88-.76,2.8,2.8,0,0,1,1.34-.29,3,3,0,0,1,1,.15,1.68,1.68,0,0,1,.73.5,2.22,2.22,0,0,1,.43.94,6,6,0,0,1,.15,1.46v4.66Z" style="fill:#fff"/><path d="M100.62,26.83h1V25.42l2-.55v2h1.83v1.65h-1.83v2.88a3,3,0,0,0,.15,1.12.6.6,0,0,0,.6.34,1.88,1.88,0,0,0,.51-.06,3.33,3.33,0,0,0,.49-.18l.35,1.5a5,5,0,0,1-.95.33,4.45,4.45,0,0,1-1.09.13,2,2,0,0,1-1.53-.53,2.58,2.58,0,0,1-.48-1.75V28.48h-1Z" style="fill:#fff"/><path d="M115.87,90.47l1-.15,1.06-.11,1-.06.92,0a10.42,10.42,0,0,1,1.93.18,5.38,5.38,0,0,1,1.7.62,3.39,3.39,0,0,1,1.2,1.21,3.8,3.8,0,0,1,.45,1.93,4.6,4.6,0,0,1-.8,2.8,4.16,4.16,0,0,1-2.14,1.5l1,.62,3.2,5.34h-3.16l-3.18-5.48-1.44-.26v5.74h-2.74Zm4.2,2.1-.83,0a3.5,3.5,0,0,0-.63.08v4.06h1.16a2.91,2.91,0,0,0,1.82-.52,2,2,0,0,0,.68-1.72,1.82,1.82,0,0,0-.56-1.41A2.37,2.37,0,0,0,120.07,92.57Z" style="fill:#fff"/><path d="M137.93,103.76a4.42,4.42,0,0,1-1.63.66,10.5,10.5,0,0,1-2,.19,7.26,7.26,0,0,1-2.39-.39,5,5,0,0,1-2-1.26,6.08,6.08,0,0,1-1.37-2.26,9.8,9.8,0,0,1-.51-3.37,9.15,9.15,0,0,1,.57-3.45,6.3,6.3,0,0,1,1.48-2.24,5.52,5.52,0,0,1,2-1.22,7.25,7.25,0,0,1,2.24-.37,11.6,11.6,0,0,1,2,.16,8.4,8.4,0,0,1,1.37.38l-.54,2.32a4.39,4.39,0,0,0-1.09-.32,10.88,10.88,0,0,0-1.53-.1,3.33,3.33,0,0,0-2.67,1.19,5.5,5.5,0,0,0-1,3.66,7.67,7.67,0,0,0,.24,2,4.22,4.22,0,0,0,.73,1.52,3.25,3.25,0,0,0,1.22,1,3.75,3.75,0,0,0,1.69.35,5.56,5.56,0,0,0,1.52-.18,4.45,4.45,0,0,0,1.08-.46Z" style="fill:#fff"/><path d="M149.65,103.76a4.42,4.42,0,0,1-1.63.66,10.5,10.5,0,0,1-2,.19,7.26,7.26,0,0,1-2.39-.39,5,5,0,0,1-2-1.26,6.08,6.08,0,0,1-1.37-2.26,9.8,9.8,0,0,1-.51-3.37,9.15,9.15,0,0,1,.57-3.45,6.3,6.3,0,0,1,1.48-2.24,5.52,5.52,0,0,1,2-1.22,7.25,7.25,0,0,1,2.24-.37,11.6,11.6,0,0,1,2,.16,8.4,8.4,0,0,1,1.37.38l-.54,2.32a4.39,4.39,0,0,0-1.09-.32,10.88,10.88,0,0,0-1.53-.1,3.33,3.33,0,0,0-2.67,1.19,5.5,5.5,0,0,0-1,3.66,7.67,7.67,0,0,0,.24,2,4.22,4.22,0,0,0,.73,1.52,3.25,3.25,0,0,0,1.22,1,3.75,3.75,0,0,0,1.69.35A5.56,5.56,0,0,0,148,102a4.45,4.45,0,0,0,1.08-.46Z" style="fill:#fff"/></g></g></svg>