<svg xmlns="http://www.w3.org/2000/svg" viewBox="0 0 174 153"><title>Ресурс 4</title><g id="Слой_2" data-name="Слой 2"><g id="Слой_1-2" data-name="Слой 1"><rect x="0.5" y="0.5" width="173" height="152" rx="11.5" ry="11.5" style="fill:#3490dc"/><path d="M162,1a11,11,0,0,1,11,11V141a11,11,0,0,1-11,11H12A11,11,0,0,1,1,141V12A11,11,0,0,1,12,1H162m0-1H12A12,12,0,0,0,0,12V141a12,12,0,0,0,12,12H162a12,12,0,0,0,12-12V12A12,12,0,0,0,162,0Z" style="fill:#3490dc"/><line x1="22.5" y1="76.5" x2="154.5" y2="76.5" style="fill:none;stroke:#fff;stroke-miterlimit:10;stroke-width:2px"/><line x1="89" y1="128" x2="89" y2="26" style="fill:none;stroke:#fff;stroke-miterlimit:10;stroke-width:2px"/><path d="M23.87,34.47l1-.15,1.06-.11,1-.06.92,0a10.42,10.42,0,0,1,1.93.18,5.38,5.38,0,0,1,1.7.62,3.39,3.39,0,0,1,1.2,1.21,3.8,3.8,0,0,1,.45,1.93,4.6,4.6,0,0,1-.8,2.8,4.16,4.16,0,0,1-2.14,1.5l1,.62,3.2,5.34H31.23l-3.18-5.48-1.44-.26v5.74H23.87Zm4.2,2.1-.83,0a3.5,3.5,0,0,0-.63.08v4.06h1.16a2.91,2.91,0,0,0,1.82-.52,2,2,0,0,0,.68-1.72,1.82,1.82,0,0,0-.56-1.41A2.37,2.37,0,0,0,28.07,36.57Z" style="fill:#fff"/><path d="M48,41.07l.3-2.78h-.12l-.86,2.24-3,5.22h-.88l-3.14-5.24-.88-2.22h-.1l.4,2.76v7.28h-2.6v-14h2.5l3.74,6.4.66,1.6h.08l.6-1.64,3.54-6.36h2.48v14H48Z" style="fill:#fff"/><path d="M63.17,48.33H54.31v-14h2.74V45.89h6.12Z" style="fill:#fff"/><path d="M63.49,41.33A8.32,8.32,0,0,1,65,35.94a5.34,5.34,0,0,1,4.4-1.89,6.28,6.28,0,0,1,2.62.52,5.07,5.07,0,0,1,1.86,1.48,6.55,6.55,0,0,1,1.1,2.3,11.54,11.54,0,0,1,.36,3,8.3,8.3,0,0,1-1.55,5.39,5.37,5.37,0,0,1-4.39,1.89,6.13,6.13,0,0,1-2.64-.52,4.72,4.72,0,0,1-1.85-1.48,6.46,6.46,0,0,1-1.09-2.3A11.43,11.43,0,0,1,63.49,41.33Zm2.88,0a9.8,9.8,0,0,0,.18,2,4.83,4.83,0,0,0,.55,1.53,2.69,2.69,0,0,0,1,1,2.53,2.53,0,0,0,1.38.36A2.61,2.61,0,0,0,71.69,45a6.61,6.61,0,0,0,.8-3.7,10.33,10.33,0,0,0-.17-1.9,5.58,5.58,0,0,0-.53-1.54,2.84,2.84,0,0,0-.94-1,2.65,2.65,0,0,0-1.42-.37,2.57,2.57,0,0,0-2.26,1.17A6.57,6.57,0,0,0,66.37,41.33Z" style="fill:#fff"/><path d="M110.73,48.33h-8.86v-14h2.74V45.89h6.12Z" style="fill:#fff"/><path d="M124.21,41.07l.3-2.78h-.12l-.86,2.24-3,5.22h-.88l-3.14-5.24-.88-2.22h-.1l.4,2.76v7.28h-2.6v-14h2.5l3.74,6.4.66,1.6h.08l.6-1.64,3.54-6.36H127v14h-2.74Z" style="fill:#fff"/><path d="M139.41,48.33h-8.86v-14h2.74V45.89h6.12Z" style="fill:#fff"/><path d="M139.73,41.33a8.32,8.32,0,0,1,1.54-5.39,5.34,5.34,0,0,1,4.4-1.89,6.28,6.28,0,0,1,2.62.52,5.07,5.07,0,0,1,1.86,1.48,6.55,6.55,0,0,1,1.1,2.3,11.54,11.54,0,0,1,.36,3,8.3,8.3,0,0,1-1.55,5.39,5.37,5.37,0,0,1-4.39,1.89,6.13,6.13,0,0,1-2.64-.52,4.72,4.72,0,0,1-1.85-1.48,6.46,6.46,0,0,1-1.09-2.3A11.43,11.43,0,0,1,139.73,41.33Zm2.88,0a9.8,9.8,0,0,0,.18,2,4.83,4.83,0,0,0,.55,1.53,2.69,2.69,0,0,0,.95,1,2.53,2.53,0,0,0,1.38.36A2.61,2.61,0,0,0,147.93,45a6.61,6.61,0,0,0,.8-3.7,10.33,10.33,0,0,0-.17-1.9,5.58,5.58,0,0,0-.53-1.54,2.84,2.84,0,0,0-.94-1,2.65,2.65,0,0,0-1.42-.37,2.57,2.57,0,0,0-2.26,1.17A6.57,6.57,0,0,0,142.61,41.33Z" style="fill:#fff"/><path d="M125.73,124.33h-8.86v-14h2.74v11.56h6.12Z" style="fill:#fff"/><path d="M136,123.76a4.42,4.42,0,0,1-1.63.66,10.5,10.5,0,0,1-2,.19,7.26,7.26,0,0,1-2.39-.39,5,5,0,0,1-2-1.26,6.08,6.08,0,0,1-1.37-2.26,9.8,9.8,0,0,1-.51-3.37,9.15,9.15,0,0,1,.57-3.45,6.3,6.3,0,0,1,1.48-2.24,5.52,5.52,0,0,1,2-1.22,7.25,7.25,0,0,1,2.24-.37,11.6,11.6,0,0,1,2,.16,8.4,8.4,0,0,1,1.37.38l-.54,2.32a4.39,4.39,0,0,0-1.09-.32,10.88,10.88,0,0,0-1.53-.1,3.33,3.33,0,0,0-2.67,1.19,5.5,5.5,0,0,0-1,3.66,7.67,7.67,0,0,0,.24,2,4.22,4.22,0,0,0,.73,1.52,3.25,3.25,0,0,0,1.22,1,3.75,3.75,0,0,0,1.69.35,5.56,5.56,0,0,0,1.52-.18,4.45,4.45,0,0,0,1.08-.46Z" style="fill:#fff"/><path d="M147.69,123.76a4.42,4.42,0,0,1-1.63.66,10.5,10.5,0,0,1-2,.19,7.26,7.26,0,0,1-2.39-.39,5,5,0,0,1-2-1.26,6.08,6.08,0,0,1-1.37-2.26,9.8,9.8,0,0,1-.51-3.37,9.15,9.15,0,0,1,.57-3.45,6.3,6.3,0,0,1,1.48-2.24,5.52,5.52,0,0,1,2-1.22,7.25,7.25,0,0,1,2.24-.37,11.6,11.6,0,0,1,2,.16,8.4,8.4,0,0,1,1.37.38l-.54,2.32a4.39,4.39,0,0,0-1.09-.32,10.88,10.88,0,0,0-1.53-.1,3.33,3.33,0,0,0-2.67,1.19,5.5,5.5,0,0,0-1,3.66,7.67,7.67,0,0,0,.24,2,4.22,4.22,0,0,0,.73,1.52,3.25,3.25,0,0,0,1.22,1,3.75,3.75,0,0,0,1.69.35,5.56,5.56,0,0,0,1.52-.18,4.45,4.45,0,0,0,1.08-.46Z" style="fill:#fff"/><path d="M23.87,110.47l1-.15,1.06-.11,1-.06.92,0a10.42,10.42,0,0,1,1.93.18,5.38,5.38,0,0,1,1.7.62,3.39,3.39,0,0,1,1.2,1.21,3.8,3.8,0,0,1,.45,1.93,4.6,4.6,0,0,1-.8,2.8,4.16,4.16,0,0,1-2.14,1.5l1,.62,3.2,5.34H31.23l-3.18-5.48-1.44-.26v5.74H23.87Zm4.2,2.1-.83,0a3.5,3.5,0,0,0-.63.08v4.06h1.16a2.91,2.91,0,0,0,1.82-.52,2,2,0,0,0,.68-1.72,1.82,1.82,0,0,0-.56-1.41A2.37,2.37,0,0,0,28.07,112.57Z" style="fill:#fff"/><path d="M45.93,123.76a4.42,4.42,0,0,1-1.63.66,10.5,10.5,0,0,1-2,.19,7.26,7.26,0,0,1-2.39-.39,5,5,0,0,1-2-1.26,6.08,6.08,0,0,1-1.37-2.26,9.8,9.8,0,0,1-.51-3.37,9.15,9.15,0,0,1,.57-3.45,6.3,6.3,0,0,1,1.48-2.24,5.52,5.52,0,0,1,2-1.22,7.25,7.25,0,0,1,2.24-.37,11.6,11.6,0,0,1,2,.16,8.4,8.4,0,0,1,1.37.38l-.54,2.32a4.39,4.39,0,0,0-1.09-.32,10.88,10.88,0,0,0-1.53-.1,3.33,3.33,0,0,0-2.67,1.19,5.5,5.5,0,0,0-1,3.66,7.67,7.67,0,0,0,.24,2,4.22,4.22,0,0,0,.73,1.52,3.25,3.25,0,0,0,1.22,1,3.75,3.75,0,0,0,1.69.35,5.56,5.56,0,0,0,1.52-.18,4.45,4.45,0,0,0,1.08-.46Z" style="fill:#fff"/><path d="M57.65,123.76a4.42,4.42,0,0,1-1.63.66,10.5,10.5,0,0,1-2,.19,7.26,7.26,0,0,1-2.39-.39,5,5,0,0,1-2-1.26,6.08,6.08,0,0,1-1.37-2.26,9.8,9.8,0,0,1-.51-3.37,9.15,9.15,0,0,1,.57-3.45,6.3,6.3,0,0,1,1.48-2.24,5.52,5.52,0,0,1,2-1.22,7.25,7.25,0,0,1,2.24-.37,11.6,11.6,0,0,1,2,.16,8.4,8.4,0,0,1,1.37.38l-.54,2.32a4.39,4.39,0,0,0-1.09-.32,10.88,10.88,0,0,0-1.53-.1,3.33,3.33,0,0,0-2.67,1.19,5.5,5.5,0,0,0-1,3.66,7.67,7.67,0,0,0,.24,2,4.22,4.22,0,0,0,.73,1.52,3.25,3.25,0,0,0,1.22,1,3.75,3.75,0,0,0,1.69.35A5.56,5.56,0,0,0,56,122a4.45,4.45,0,0,0,1.08-.46Z" style="fill:#fff"/></g></g></svg>