<svg xmlns="http://www.w3.org/2000/svg" viewBox="0 0 174 153"><title>Ресурс 5</title><g id="Слой_2" data-name="Слой 2"><g id="Слой_1-2" data-name="Слой 1"><rect x="0.5" y="0.5" width="173" height="152" rx="11.5" ry="11.5" style="fill:#3490dc"/><path d="M162,1a11,11,0,0,1,11,11V141a11,11,0,0,1-11,11H12A11,11,0,0,1,1,141V12A11,11,0,0,1,12,1H162m0-1H12A12,12,0,0,0,0,12V141a12,12,0,0,0,12,12H162a12,12,0,0,0,12-12V12A12,12,0,0,0,162,0Z" style="fill:#3490dc"/><line x1="21" y1="58" x2="153" y2="58" style="fill:none;stroke:#fff;stroke-miterlimit:10;stroke-width:2px"/><line x1="87" y1="113" x2="87" y2="58" style="fill:none;stroke:#fff;stroke-miterlimit:10;stroke-width:2px"/><path d="M80.21,34.33H73.57V23.83h2.05V32.5h4.59Z" style="fill:#fff"/><path d="M87.61,33.69a3.91,3.91,0,0,1-1.23.61,5.47,5.47,0,0,1-1.64.24,3.19,3.19,0,0,1-2.65-1,4.58,4.58,0,0,1-.84-2.91,4.15,4.15,0,0,1,.94-3,3.51,3.51,0,0,1,2.66-1,4.13,4.13,0,0,1,1.11.15,2.59,2.59,0,0,1,1,.5,2.43,2.43,0,0,1,.67.93,3.62,3.62,0,0,1,.26,1.45c0,.21,0,.44,0,.68s-.06.49-.11.75H83.21a2.16,2.16,0,0,0,.49,1.42,1.85,1.85,0,0,0,1.43.48A3,3,0,0,0,87,32.41Zm-2.79-5.51a1.36,1.36,0,0,0-1.12.46,2.23,2.23,0,0,0-.44,1.22H86a1.91,1.91,0,0,0-.24-1.24A1.12,1.12,0,0,0,84.82,28.18Z" style="fill:#fff"/><path d="M89.44,26.83h1v-.42a3,3,0,0,1,.6-2.06,2.29,2.29,0,0,1,1.74-.64,6,6,0,0,1,2,.29l-.38,1.56a3.7,3.7,0,0,0-.61-.16,4.56,4.56,0,0,0-.54,0,1.08,1.08,0,0,0-.48.09.57.57,0,0,0-.25.28,1.48,1.48,0,0,0-.11.47c0,.18,0,.39,0,.63h1.65v1.65H92.42v5.85h-2V28.48h-1Z" style="fill:#fff"/><path d="M94.94,26.83h1V25.42l2-.55v2h1.83v1.65H97.93v2.88a3,3,0,0,0,.15,1.12.6.6,0,0,0,.6.34,1.88,1.88,0,0,0,.51-.06,3.33,3.33,0,0,0,.49-.18l.35,1.5a5,5,0,0,1-1,.33,4.45,4.45,0,0,1-1.09.13A2,2,0,0,1,96.46,34,2.58,2.58,0,0,1,96,32.26V28.48h-1Z" style="fill:#fff"/><path d="M33.73,113.33H24.87v-14h2.74v11.56h6.12Z" style="fill:#fff"/><path d="M47.21,106.07l.3-2.78h-.12l-.86,2.24-3,5.22h-.88l-3.14-5.24-.88-2.22h-.1l.4,2.76v7.28h-2.6v-14h2.5l3.74,6.4.66,1.6h.08l.6-1.64,3.54-6.36H50v14H47.21Z" style="fill:#fff"/><path d="M62.41,113.33H53.55v-14h2.74v11.56h6.12Z" style="fill:#fff"/><path d="M62.73,106.33a8.32,8.32,0,0,1,1.54-5.39,5.34,5.34,0,0,1,4.4-1.89,6.28,6.28,0,0,1,2.62.52,5.07,5.07,0,0,1,1.86,1.48,6.55,6.55,0,0,1,1.1,2.3,11.54,11.54,0,0,1,.36,3,8.3,8.3,0,0,1-1.55,5.39,5.37,5.37,0,0,1-4.39,1.89,6.13,6.13,0,0,1-2.64-.52,4.72,4.72,0,0,1-1.85-1.48,6.46,6.46,0,0,1-1.09-2.3A11.43,11.43,0,0,1,62.73,106.33Zm2.88,0a9.8,9.8,0,0,0,.18,2,4.83,4.83,0,0,0,.55,1.53,2.69,2.69,0,0,0,1,1,2.53,2.53,0,0,0,1.38.36A2.61,2.61,0,0,0,70.93,110a6.61,6.61,0,0,0,.8-3.7,10.33,10.33,0,0,0-.17-1.9,5.58,5.58,0,0,0-.53-1.54,2.84,2.84,0,0,0-.94-1,2.65,2.65,0,0,0-1.42-.37,2.57,2.57,0,0,0-2.26,1.17A6.57,6.57,0,0,0,65.61,106.33Z" style="fill:#fff"/><path d="M127.73,113.33h-8.86v-14h2.74v11.56h6.12Z" style="fill:#fff"/><path d="M138,112.76a4.42,4.42,0,0,1-1.63.66,10.5,10.5,0,0,1-2,.19,7.26,7.26,0,0,1-2.39-.39,5,5,0,0,1-2-1.26,6.08,6.08,0,0,1-1.37-2.26,9.8,9.8,0,0,1-.51-3.37,9.15,9.15,0,0,1,.57-3.45,6.3,6.3,0,0,1,1.48-2.24,5.52,5.52,0,0,1,2-1.22,7.25,7.25,0,0,1,2.24-.37,11.6,11.6,0,0,1,2,.16,8.4,8.4,0,0,1,1.37.38l-.54,2.32a4.39,4.39,0,0,0-1.09-.32,10.88,10.88,0,0,0-1.53-.1,3.33,3.33,0,0,0-2.67,1.19,5.5,5.5,0,0,0-1,3.66,7.67,7.67,0,0,0,.24,2,4.22,4.22,0,0,0,.73,1.52,3.25,3.25,0,0,0,1.22,1,3.75,3.75,0,0,0,1.69.35,5.56,5.56,0,0,0,1.52-.18,4.45,4.45,0,0,0,1.08-.46Z" style="fill:#fff"/><path d="M149.69,112.76a4.42,4.42,0,0,1-1.63.66,10.5,10.5,0,0,1-2,.19,7.26,7.26,0,0,1-2.39-.39,5,5,0,0,1-2-1.26,6.08,6.08,0,0,1-1.37-2.26,9.8,9.8,0,0,1-.51-3.37,9.15,9.15,0,0,1,.57-3.45,6.3,6.3,0,0,1,1.48-2.24,5.52,5.52,0,0,1,2-1.22,7.25,7.25,0,0,1,2.24-.37,11.6,11.6,0,0,1,2,.16,8.4,8.4,0,0,1,1.37.38l-.54,2.32a4.39,4.39,0,0,0-1.09-.32,10.88,10.88,0,0,0-1.53-.1,3.33,3.33,0,0,0-2.67,1.19,5.5,5.5,0,0,0-1,3.66,7.67,7.67,0,0,0,.24,2,4.22,4.22,0,0,0,.73,1.52,3.25,3.25,0,0,0,1.22,1,3.75,3.75,0,0,0,1.69.35,5.56,5.56,0,0,0,1.52-.18,4.45,4.45,0,0,0,1.08-.46Z" style="fill:#fff"/></g></g></svg>